<svg width="38" height="33" viewBox="0 0 38 33" fill="none" xmlns="http://www.w3.org/2000/svg">
<path d="M14.2223 14.3241L14.2163 14.329L11.5267 16.5L14.2112 18.667C14.5598 18.9453 14.8534 19.2891 15.0731 19.6817L20.7174 4.64502C20.7175 4.64482 20.7175 4.64462 20.7176 4.64443C20.8795 4.21301 21.126 3.82078 21.4398 3.48869C21.7536 3.15658 22.1285 2.8911 22.5412 2.70443C22.9539 2.51781 23.3981 2.41276 23.8487 2.39354C24.2992 2.37433 24.7501 2.44112 25.1765 2.59124L14.2223 14.3241ZM14.2223 14.3241L14.2283 14.3192C14.9365 13.7383 15.3938 12.8963 15.4771 11.9689C15.5606 11.0407 15.2603 10.128 14.6599 9.42972C14.0614 8.73372 13.2166 8.30851 12.3165 8.22554C11.4169 8.14261 10.5113 8.40587 9.79648 8.97339L9.79009 8.97846L9.78375 8.98359L3.78402 13.8271C3.78393 13.8272 3.78384 13.8273 3.78375 13.8273C3.38811 14.1467 3.0649 14.5504 2.84128 15.0128C2.61749 15.4756 2.50012 15.9835 2.50012 16.5C2.50012 17.0165 2.61749 17.5244 2.84128 17.9872C3.0649 18.4496 3.38812 18.8533 3.78375 19.1727C3.78384 19.1728 3.78393 19.1728 3.78402 19.1729L9.77895 24.0126C10.1312 24.2999 10.5349 24.5146 10.9661 24.6474C11.4002 24.7811 11.8558 24.8299 12.3076 24.7918C12.6235 24.7651 12.9345 24.6962 13.2319 24.5868L12.7176 25.9569L12.7171 25.9584C12.3896 26.8329 12.4348 27.7995 12.8396 28.6391C13.2425 29.4746 13.9607 30.1022 14.8184 30.4057M14.2223 14.3241L14.8184 30.4057M14.8184 30.4057C15.1985 30.5411 15.5988 30.6097 16.0012 30.6094M14.8184 30.4057L27.2825 7.04314L26.7682 8.41319C27.0656 8.30381 27.3766 8.23492 27.6925 8.20826C28.1443 8.17015 28.5999 8.21891 29.034 8.3526C29.4652 8.48541 29.8689 8.70016 30.2211 8.98745L36.2161 13.8271C36.2162 13.8272 36.2163 13.8273 36.2163 13.8273C36.612 14.1467 36.9352 14.5504 37.1588 15.0128C37.3826 15.4756 37.5 15.9835 37.5 16.5C37.5 17.0165 37.3826 17.5244 37.1588 17.9872C36.9352 18.4496 36.612 18.8533 36.2163 19.1727C36.2163 19.1728 36.2162 19.1728 36.2161 19.1729L30.2211 24.0126C29.8689 24.2999 29.4652 24.5146 29.034 24.6474C28.5999 24.7811 28.1443 24.8299 27.6925 24.7918C27.2408 24.7536 26.7991 24.6291 26.3927 24.4234C25.9862 24.2176 25.6215 23.9337 25.3218 23.5852C25.022 23.2364 24.7934 22.8301 24.6524 22.3884C24.5114 21.9466 24.4617 21.4805 24.5072 21.018C24.5526 20.5556 24.6919 20.1089 24.9146 19.704C25.1357 19.3021 25.4337 18.9505 25.7888 18.667L28.4734 16.5L25.7888 14.333C25.4403 14.0548 25.1467 13.7109 24.927 13.3183L19.2825 28.3554C19.2825 28.3555 19.2825 28.3555 19.2825 28.3556C19.0291 29.0306 18.5717 29.6026 17.9837 30.0015C17.3968 30.3997 16.7047 30.6092 16.0012 30.6094M16.0012 30.6094C16.0007 30.6094 16.0002 30.6094 15.9997 30.6094L16 28.6094L16.0026 30.6094C16.0022 30.6094 16.0017 30.6094 16.0012 30.6094ZM27.4969 5.68894C27.5179 6.15098 27.4445 6.61137 27.2825 7.04309L27.4969 5.68894ZM27.4969 5.68894C27.4759 5.2269 27.3611 4.77542 27.1613 4.36068M27.4969 5.68894L27.1613 4.36068M27.1613 4.36068C26.9615 3.94609 26.6814 3.57796 26.3401 3.27535M27.1613 4.36068L26.3401 3.27535M26.3401 3.27535C25.9992 2.97301 25.6036 2.74163 25.1771 2.59146L26.3401 3.27535Z" fill="#82BC4F" stroke="#16181D" stroke-width="4"/>
</svg>
